<?xml version="1.0" encoding="UTF-8" standalone="no"?>
<!DOCTYPE svg PUBLIC "-//W3C//DTD SVG 1.1//EN" "http://www.w3.org/Graphics/SVG/1.1/DTD/svg11.dtd">
<svg width="100%" height="100%" viewBox="0 0 1871 1871" version="1.1" xmlns="http://www.w3.org/2000/svg" xmlns:xlink="http://www.w3.org/1999/xlink" xml:space="preserve" xmlns:serif="http://www.serif.com/" style="fill-rule:evenodd;clip-rule:evenodd;stroke-linejoin:round;stroke-miterlimit:2;">
    <g transform="matrix(1,0,0,1,-131.25,-131.25)">
        <g transform="matrix(4.16667,0,0,4.16667,758.333,133.333)">
            <path d="M0,0C4.965,2.305 7.391,5.241 10,10C10.518,12.98 10.469,15.881 10.391,18.898C10.387,19.639 10.383,20.38 10.378,21.144C10.358,23.888 10.302,26.631 10.25,29.375C10.168,35.521 10.085,41.667 10,48L58,48C57.842,35.764 57.842,35.764 57.64,23.529C57.628,21.985 57.618,20.442 57.609,18.898C57.589,18.109 57.568,17.319 57.547,16.505C57.544,11.178 58.506,8.249 62,4C65.819,0.372 68.883,-0.31 74,-0.5C79.117,-0.31 82.181,0.372 86,4C90.158,9.056 90.553,12.636 90.391,18.898C90.387,19.639 90.383,20.38 90.378,21.144C90.358,23.888 90.302,26.631 90.25,29.375C90.168,35.521 90.085,41.667 90,48L138,48C137.842,35.764 137.842,35.764 137.64,23.529C137.628,21.985 137.618,20.442 137.609,18.898C137.589,18.109 137.568,17.319 137.547,16.505C137.544,11.178 138.506,8.249 142,4C145.819,0.372 148.883,-0.31 154,-0.5C159.117,-0.31 162.181,0.372 166,4C170.158,9.056 170.552,12.637 170.391,18.898C170.385,19.733 170.379,20.568 170.373,21.429C170.351,24.078 170.301,26.726 170.25,29.375C170.23,31.178 170.212,32.982 170.195,34.785C170.151,39.191 170.082,43.595 170,48C171.209,47.979 172.419,47.958 173.665,47.937C178.205,47.863 182.745,47.818 187.285,47.78C189.24,47.76 191.195,47.733 193.15,47.698C211.19,47.385 224.093,49.642 237.75,62.313C246.819,71.895 250.525,83.162 250.293,96.164C250.289,97.082 250.284,98 250.28,98.946C250.263,101.839 250.226,104.732 250.188,107.625C250.172,109.603 250.159,111.581 250.146,113.559C250.114,118.373 250.062,123.186 250,128C251.12,127.979 252.239,127.958 253.393,127.937C257.564,127.864 261.735,127.818 265.906,127.78C267.708,127.76 269.51,127.733 271.312,127.698C273.909,127.649 276.505,127.627 279.102,127.609C279.902,127.589 280.702,127.568 281.527,127.547C286.839,127.545 289.764,128.517 294,132C297.628,135.819 298.31,138.883 298.5,144C298.31,149.117 297.628,152.181 294,156C288.944,160.158 285.364,160.553 279.102,160.391C278.361,160.387 277.62,160.383 276.856,160.378C274.112,160.358 271.369,160.302 268.625,160.25C262.479,160.168 256.332,160.085 250,160L250,208C262.236,207.842 262.236,207.842 274.471,207.64C276.015,207.628 277.558,207.618 279.102,207.609C279.891,207.589 280.681,207.568 281.495,207.547C286.822,207.544 289.751,208.506 294,212C297.628,215.819 298.31,218.883 298.5,224C298.31,229.117 297.628,232.181 294,236C288.944,240.158 285.364,240.553 279.102,240.391C278.361,240.387 277.62,240.383 276.856,240.378C274.112,240.358 271.369,240.302 268.625,240.25C262.479,240.167 256.332,240.085 250,240L250,288C262.236,287.842 262.236,287.842 274.471,287.64C276.015,287.628 277.558,287.618 279.102,287.609C279.891,287.589 280.681,287.568 281.495,287.547C286.822,287.544 289.751,288.506 294,292C297.628,295.819 298.31,298.883 298.5,304C298.31,309.117 297.628,312.181 294,316C288.944,320.158 285.363,320.552 279.102,320.391C278.267,320.385 277.432,320.379 276.571,320.373C273.922,320.351 271.274,320.301 268.625,320.25C266.822,320.23 265.018,320.212 263.215,320.195C258.809,320.151 254.405,320.082 250,320C250.021,321.209 250.042,322.419 250.063,323.665C250.137,328.205 250.182,332.745 250.22,337.285C250.24,339.24 250.267,341.195 250.302,343.15C250.615,361.19 248.358,374.093 235.688,387.75C226.105,396.819 214.838,400.525 201.836,400.293C200.918,400.289 200,400.284 199.054,400.28C196.161,400.263 193.268,400.226 190.375,400.188C188.397,400.172 186.419,400.159 184.441,400.146C179.627,400.114 174.814,400.062 170,400C170.031,401.68 170.031,401.68 170.063,403.393C170.136,407.564 170.182,411.735 170.22,415.906C170.24,417.708 170.267,419.51 170.302,421.312C170.351,423.909 170.373,426.505 170.391,429.102C170.411,429.902 170.432,430.702 170.453,431.527C170.455,436.839 169.483,439.764 166,444C162.181,447.628 159.117,448.31 154,448.5C148.883,448.31 145.819,447.628 142,444C137.842,438.944 137.447,435.364 137.609,429.102C137.613,428.361 137.617,427.62 137.622,426.856C137.642,424.112 137.698,421.369 137.75,418.625C137.833,412.479 137.915,406.333 138,400L90,400C90.158,412.236 90.158,412.236 90.36,424.471C90.372,426.015 90.382,427.558 90.391,429.102C90.411,429.891 90.432,430.681 90.453,431.495C90.456,436.822 89.494,439.751 86,444C82.181,447.628 79.117,448.31 74,448.5C68.883,448.31 65.819,447.628 62,444C57.842,438.944 57.447,435.364 57.609,429.102C57.613,428.361 57.617,427.62 57.622,426.856C57.642,424.112 57.698,421.369 57.75,418.625C57.833,412.479 57.915,406.333 58,400L10,400C10.158,412.236 10.158,412.236 10.36,424.471C10.372,426.015 10.382,427.558 10.391,429.102C10.411,429.891 10.432,430.681 10.453,431.495C10.456,436.822 9.494,439.751 6,444C2.181,447.628 -0.883,448.31 -6,448.5C-11.117,448.31 -14.181,447.628 -18,444C-22.158,438.944 -22.552,435.363 -22.391,429.102C-22.385,428.267 -22.379,427.432 -22.373,426.571C-22.351,423.922 -22.301,421.274 -22.25,418.625C-22.23,416.822 -22.212,415.018 -22.195,413.215C-22.151,408.809 -22.082,404.405 -22,400C-23.209,400.021 -24.419,400.042 -25.665,400.063C-30.205,400.137 -34.745,400.182 -39.285,400.22C-41.24,400.24 -43.195,400.267 -45.15,400.302C-63.19,400.615 -76.093,398.358 -89.75,385.688C-98.819,376.105 -102.525,364.838 -102.293,351.836C-102.287,350.459 -102.287,350.459 -102.28,349.054C-102.263,346.161 -102.226,343.268 -102.188,340.375C-102.172,338.397 -102.159,336.419 -102.146,334.441C-102.114,329.627 -102.062,324.814 -102,320C-103.12,320.021 -104.239,320.042 -105.393,320.063C-109.564,320.136 -113.735,320.182 -117.906,320.22C-119.708,320.24 -121.51,320.267 -123.312,320.302C-125.909,320.351 -128.505,320.373 -131.102,320.391C-132.302,320.422 -132.302,320.422 -133.527,320.453C-138.839,320.455 -141.764,319.483 -146,316C-149.628,312.181 -150.31,309.117 -150.5,304C-150.31,298.883 -149.628,295.819 -146,292C-140.944,287.842 -137.364,287.447 -131.102,287.609C-130.361,287.613 -129.62,287.617 -128.856,287.622C-126.112,287.642 -123.369,287.698 -120.625,287.75C-114.479,287.833 -108.333,287.915 -102,288L-102,240C-114.236,240.158 -114.236,240.158 -126.471,240.36C-128.015,240.372 -129.558,240.382 -131.102,240.391C-131.891,240.411 -132.681,240.432 -133.495,240.453C-138.822,240.456 -141.751,239.494 -146,236C-149.628,232.181 -150.31,229.117 -150.5,224C-150.31,218.883 -149.628,215.819 -146,212C-140.944,207.842 -137.364,207.447 -131.102,207.609C-130.361,207.613 -129.62,207.617 -128.856,207.622C-126.112,207.642 -123.369,207.698 -120.625,207.75C-114.479,207.833 -108.333,207.915 -102,208L-102,160C-114.236,160.158 -114.236,160.158 -126.471,160.36C-128.015,160.372 -129.558,160.382 -131.102,160.391C-131.891,160.411 -132.681,160.432 -133.495,160.453C-138.822,160.456 -141.751,159.494 -146,156C-149.628,152.181 -150.31,149.117 -150.5,144C-150.31,138.883 -149.628,135.819 -146,132C-140.944,127.842 -137.363,127.448 -131.102,127.609C-130.267,127.615 -129.432,127.621 -128.571,127.627C-125.922,127.649 -123.274,127.699 -120.625,127.75C-118.822,127.77 -117.018,127.788 -115.215,127.805C-110.809,127.849 -106.405,127.918 -102,128C-102.021,126.791 -102.042,125.581 -102.063,124.335C-102.137,119.795 -102.182,115.255 -102.22,110.715C-102.24,108.76 -102.267,106.805 -102.302,104.85C-102.615,86.81 -100.358,73.907 -87.688,60.25C-78.105,51.181 -66.838,47.475 -53.836,47.707C-52.918,47.711 -52,47.716 -51.054,47.72C-48.161,47.737 -45.268,47.774 -42.375,47.813C-40.397,47.828 -38.419,47.841 -36.441,47.854C-31.627,47.886 -26.814,47.938 -22,48C-22.031,46.32 -22.031,46.32 -22.063,44.607C-22.136,40.436 -22.182,36.265 -22.22,32.094C-22.24,30.292 -22.267,28.49 -22.302,26.688C-22.351,24.091 -22.373,21.495 -22.391,18.898C-22.411,18.098 -22.432,17.298 -22.453,16.473C-22.455,11.161 -21.483,8.236 -18,4C-12.729,-1.008 -6.892,-0.928 0,0ZM-65.938,85.75C-70.198,92.464 -70.291,98.763 -70.261,106.5C-70.265,107.545 -70.268,108.59 -70.272,109.667C-70.283,113.162 -70.279,116.657 -70.275,120.152C-70.279,122.66 -70.284,125.169 -70.29,127.678C-70.302,133.78 -70.305,139.883 -70.302,145.986C-70.301,150.948 -70.302,155.91 -70.307,160.872C-70.307,161.579 -70.308,162.286 -70.308,163.015C-70.31,164.451 -70.311,165.887 -70.312,167.323C-70.323,180.785 -70.321,194.247 -70.315,207.71C-70.309,220.015 -70.321,232.321 -70.34,244.627C-70.359,257.273 -70.367,269.919 -70.364,282.565C-70.362,289.661 -70.364,296.757 -70.378,303.852C-70.391,310.525 -70.389,317.198 -70.376,323.871C-70.374,326.319 -70.376,328.766 -70.385,331.213C-70.395,334.558 -70.387,337.902 -70.374,341.246C-70.382,342.211 -70.389,343.176 -70.397,344.171C-70.346,350.534 -69.86,357.432 -65.725,362.591C-59.32,368.439 -51.645,368.292 -43.5,368.261C-41.933,368.266 -41.933,368.266 -40.333,368.272C-36.838,368.283 -33.343,368.279 -29.848,368.275C-27.34,368.279 -24.831,368.284 -22.322,368.29C-16.22,368.302 -10.117,368.305 -4.014,368.302C0.948,368.301 5.91,368.302 10.872,368.307C11.933,368.307 11.933,368.307 13.015,368.308C14.451,368.31 15.887,368.311 17.323,368.312C30.785,368.323 44.247,368.321 57.71,368.315C70.015,368.309 82.321,368.321 94.627,368.34C107.273,368.359 119.919,368.367 132.565,368.364C139.661,368.362 146.757,368.364 153.852,368.378C160.525,368.391 167.198,368.389 173.871,368.376C176.319,368.374 178.766,368.376 181.213,368.385C184.558,368.395 187.902,368.387 191.246,368.374C192.211,368.382 193.176,368.389 194.171,368.397C200.534,368.346 207.432,367.86 212.591,363.725C218.439,357.32 218.292,349.645 218.261,341.5C218.265,340.455 218.268,339.41 218.272,338.333C218.283,334.838 218.279,331.343 218.275,327.848C218.279,325.34 218.284,322.831 218.29,320.322C218.302,314.22 218.305,308.117 218.302,302.014C218.301,297.052 218.302,292.09 218.307,287.128C218.307,286.067 218.307,286.067 218.308,284.985C218.31,283.549 218.311,282.113 218.312,280.677C218.323,267.215 218.321,253.753 218.315,240.29C218.309,227.985 218.321,215.679 218.34,203.373C218.359,190.727 218.367,178.081 218.364,165.435C218.362,158.339 218.364,151.243 218.378,144.148C218.391,137.475 218.389,130.802 218.376,124.129C218.374,121.681 218.376,119.234 218.385,116.787C218.395,113.442 218.387,110.098 218.374,106.754C218.382,105.789 218.389,104.824 218.397,103.829C218.346,97.466 217.86,90.568 213.725,85.409C207.32,79.561 199.645,79.708 191.5,79.739C190.455,79.735 189.41,79.732 188.333,79.728C184.838,79.717 181.343,79.721 177.848,79.725C175.34,79.721 172.831,79.716 170.322,79.71C164.22,79.698 158.117,79.695 152.014,79.698C147.052,79.699 142.09,79.698 137.128,79.693C136.421,79.693 135.714,79.692 134.985,79.692C133.549,79.69 132.113,79.689 130.677,79.688C117.215,79.677 103.753,79.679 90.29,79.685C77.985,79.691 65.679,79.679 53.373,79.66C40.727,79.641 28.081,79.633 15.435,79.636C8.339,79.638 1.243,79.636 -5.852,79.622C-12.525,79.609 -19.198,79.611 -25.871,79.624C-28.319,79.626 -30.766,79.624 -33.213,79.615C-36.558,79.605 -39.902,79.613 -43.246,79.626C-44.211,79.618 -45.176,79.611 -46.171,79.603C-53.218,79.66 -60.917,80.252 -65.938,85.75Z" style="fill:rgb(141,165,243);fill-rule:nonzero;"/>
        </g>
        <rect x="800" y="800" width="533.333" height="533.333" style="fill:rgb(141,165,243);"/>
        <g transform="matrix(4.16667,0,0,4.16667,792.171,665.552)">
            <path d="M0,0C1.205,-0.009 2.411,-0.017 3.653,-0.026C4.962,-0.025 6.271,-0.024 7.62,-0.023C9.024,-0.029 10.427,-0.036 11.83,-0.043C15.632,-0.061 19.434,-0.066 23.236,-0.067C25.615,-0.069 27.994,-0.073 30.373,-0.078C38.684,-0.097 46.995,-0.105 55.306,-0.103C63.034,-0.102 70.763,-0.123 78.492,-0.155C85.142,-0.181 91.791,-0.192 98.441,-0.19C102.407,-0.19 106.372,-0.195 110.337,-0.217C114.07,-0.236 117.803,-0.236 121.536,-0.222C123.545,-0.219 125.554,-0.235 127.563,-0.252C137.534,-0.184 145.893,1.602 153.348,8.564C159.029,14.883 162.119,21.841 162.146,30.395C162.159,32.206 162.159,32.206 162.172,34.052C162.171,36.019 162.171,36.019 162.169,38.025C162.175,39.429 162.182,40.834 162.19,42.239C162.207,46.045 162.212,49.851 162.213,53.657C162.215,56.038 162.219,58.419 162.224,60.8C162.243,69.117 162.251,77.433 162.25,85.749C162.248,93.486 162.269,101.222 162.301,108.959C162.327,115.614 162.338,122.269 162.337,128.924C162.336,132.893 162.342,136.862 162.363,140.831C162.382,144.567 162.382,148.302 162.368,152.037C162.365,154.05 162.382,156.063 162.399,158.076C162.348,165.381 161.581,170.913 157.879,177.267C157.41,178.077 156.941,178.886 156.457,179.721C151.5,186.428 145.856,189.927 137.879,192.267C134.917,192.525 134.917,192.525 131.751,192.535C130.544,192.543 129.337,192.552 128.094,192.561C126.783,192.56 125.472,192.559 124.122,192.558C122.717,192.564 121.312,192.571 119.907,192.578C116.101,192.596 112.295,192.601 108.489,192.602C106.108,192.603 103.727,192.608 101.346,192.613C93.03,192.631 84.714,192.64 76.397,192.638C68.661,192.637 60.924,192.658 53.187,192.69C46.532,192.716 39.878,192.726 33.222,192.725C29.253,192.725 25.284,192.73 21.315,192.751C17.58,192.771 13.845,192.771 10.109,192.756C8.096,192.753 6.083,192.77 4.071,192.787C-3.235,192.737 -8.766,191.97 -15.121,188.267C-15.931,187.798 -16.74,187.329 -17.574,186.846C-24.281,181.888 -27.78,176.244 -30.121,168.267C-30.378,165.308 -30.378,165.308 -30.388,162.146C-30.397,160.941 -30.406,159.736 -30.414,158.494C-30.413,157.184 -30.412,155.875 -30.412,154.526C-30.418,153.123 -30.424,151.719 -30.432,150.316C-30.45,146.514 -30.454,142.712 -30.456,138.911C-30.457,136.531 -30.461,134.152 -30.467,131.773C-30.485,123.462 -30.493,115.152 -30.492,106.841C-30.49,99.112 -30.512,91.383 -30.543,83.655C-30.569,77.005 -30.58,70.355 -30.579,63.705C-30.578,59.74 -30.584,55.775 -30.605,51.81C-30.625,48.076 -30.625,44.344 -30.61,40.611C-30.607,38.601 -30.624,36.592 -30.641,34.583C-30.572,24.612 -28.787,16.254 -21.824,8.799C-15.508,3.12 -8.551,0.027 0,0ZM1.879,32.267L1.879,160.267L129.879,160.267L129.879,32.267L1.879,32.267Z" style="fill:rgb(141,165,243);fill-rule:nonzero;"/>
        </g>
    </g>
</svg>
