<?xml version="1.0" encoding="UTF-8" standalone="no"?>
<!DOCTYPE svg PUBLIC "-//W3C//DTD SVG 1.1//EN" "http://www.w3.org/Graphics/SVG/1.1/DTD/svg11.dtd">
<svg width="100%" height="100%" viewBox="0 0 2134 2134" version="1.1" xmlns="http://www.w3.org/2000/svg" xmlns:xlink="http://www.w3.org/1999/xlink" xml:space="preserve" xmlns:serif="http://www.serif.com/" style="fill-rule:evenodd;clip-rule:evenodd;stroke-linejoin:round;stroke-miterlimit:2;">
    <g transform="matrix(1,0,0,1,-0.0613165,0)">
        <g transform="matrix(4.16667,0,0,4.16667,1162.5,164.583)">
            <path d="M0,0C1.636,0.782 3.273,1.56 4.911,2.336C7.443,3.536 9.973,4.736 12.5,5.945C20.12,9.586 27.822,13.021 35.556,16.412C50.161,22.822 64.646,29.474 79.102,36.213C90.501,41.523 101.934,46.74 113.438,51.819C119.964,54.701 126.483,57.599 133,60.5C133.723,60.821 134.445,61.142 135.19,61.473C139.455,63.371 143.711,65.286 147.957,67.225C149.257,67.816 150.56,68.402 151.865,68.981C165.209,74.918 165.209,74.918 169,82.5C169.498,87.955 169.711,92.87 167.5,97.938C160.442,105.172 150.328,108.723 141.25,112.813C139.689,113.521 138.129,114.229 136.569,114.938C125.128,120.127 113.643,125.218 102.152,130.295C88.996,136.112 75.941,142.134 62.903,148.21C49.2,154.594 35.438,160.825 21.596,166.898C14.81,169.881 8.065,172.912 1.402,176.16C-0.358,177.009 -0.358,177.009 -2.155,177.875C-4.291,178.913 -6.419,179.969 -8.535,181.049C-15.929,184.625 -22.79,186.515 -30.864,183.895C-36.058,181.916 -41.016,179.448 -46,177C-47.636,176.218 -49.273,175.44 -50.911,174.664C-53.443,173.464 -55.973,172.264 -58.5,171.055C-66.12,167.414 -73.822,163.979 -81.556,160.588C-96.161,154.178 -110.646,147.526 -125.102,140.787C-136.501,135.477 -147.934,130.26 -159.438,125.181C-165.964,122.299 -172.483,119.401 -179,116.5C-179.723,116.179 -180.445,115.858 -181.19,115.527C-185.455,113.629 -189.711,111.714 -193.957,109.775C-195.257,109.184 -196.56,108.598 -197.865,108.019C-211.209,102.082 -211.209,102.082 -215,94.5C-215.498,89.045 -215.711,84.13 -213.5,79.063C-206.442,71.828 -196.328,68.277 -187.25,64.188C-185.689,63.479 -184.129,62.771 -182.569,62.062C-171.128,56.873 -159.643,51.782 -148.152,46.705C-134.996,40.888 -121.941,34.866 -108.903,28.79C-95.2,22.406 -81.438,16.175 -67.596,10.102C-60.81,7.119 -54.065,4.088 -47.402,0.84C-45.642,-0.009 -45.642,-0.009 -43.845,-0.875C-41.709,-1.913 -39.581,-2.969 -37.465,-4.049C-23.183,-10.957 -13.256,-6.51 0,0Z" style="fill:rgb(141,165,243);fill-rule:nonzero;"/>
        </g>
        <g transform="matrix(4.16667,0,0,4.16667,232.913,735.792)">
            <path d="M0,0C5.179,1.981 10.128,4.468 15.101,6.91C16.737,7.691 18.374,8.47 20.012,9.246C22.543,10.445 25.074,11.646 27.601,12.855C35.221,16.496 42.923,19.93 50.657,23.322C65.262,29.732 79.746,36.384 94.202,43.123C105.601,48.433 117.035,53.65 128.539,58.729C135.065,61.611 141.583,64.509 148.101,67.41C148.823,67.731 149.546,68.052 150.291,68.383C154.555,70.281 158.812,72.195 163.058,74.135C164.358,74.726 165.661,75.311 166.966,75.891C180.31,81.828 180.31,81.828 184.101,89.41C184.205,92.067 184.249,94.697 184.248,97.355C184.252,98.185 184.255,99.016 184.259,99.871C184.27,102.67 184.274,105.469 184.278,108.268C184.284,110.269 184.291,112.269 184.298,114.269C184.315,119.716 184.326,125.162 184.334,130.609C184.339,134.009 184.345,137.41 184.351,140.811C184.371,151.446 184.385,162.081 184.393,172.716C184.403,185.002 184.429,197.289 184.47,209.575C184.5,219.065 184.515,228.554 184.518,238.044C184.52,243.715 184.529,249.386 184.554,255.057C184.578,260.392 184.582,265.727 184.572,271.062C184.571,273.02 184.577,274.979 184.591,276.937C184.609,279.611 184.602,282.283 184.589,284.957C184.6,285.732 184.611,286.507 184.622,287.305C184.56,292.497 183.355,295.399 180.101,299.41C175.614,303.672 171.631,304.023 165.7,303.928C158.28,302.86 151.768,299.185 145.101,295.91C143.465,295.128 141.828,294.35 140.19,293.573C137.658,292.374 135.128,291.174 132.601,289.965C124.981,286.324 117.279,282.889 109.545,279.498C94.94,273.088 80.455,266.436 65.999,259.697C54.6,254.386 43.167,249.17 31.663,244.091C25.137,241.209 18.618,238.31 12.101,235.41C11.378,235.089 10.656,234.768 9.911,234.437C5.646,232.539 1.39,230.624 -2.857,228.685C-4.157,228.094 -5.459,227.508 -6.764,226.928C-20.108,220.992 -20.108,220.992 -23.899,213.41C-24.004,210.753 -24.047,208.122 -24.046,205.465C-24.05,204.635 -24.054,203.804 -24.057,202.948C-24.069,200.149 -24.072,197.35 -24.076,194.551C-24.082,192.551 -24.089,190.551 -24.096,188.55C-24.114,183.104 -24.124,177.658 -24.132,172.211C-24.137,168.81 -24.144,165.409 -24.15,162.009C-24.169,151.374 -24.183,140.739 -24.191,130.104C-24.201,117.817 -24.228,105.531 -24.268,93.245C-24.298,83.755 -24.313,74.265 -24.316,64.776C-24.319,59.105 -24.328,53.434 -24.353,47.763C-24.376,42.428 -24.38,37.093 -24.37,31.758C-24.369,29.799 -24.376,27.841 -24.389,25.883C-24.407,23.209 -24.4,20.536 -24.387,17.863C-24.398,17.088 -24.409,16.313 -24.42,15.514C-24.358,10.323 -23.153,7.42 -19.899,3.41C-14.393,-1.821 -7.113,-2.21 0,0Z" style="fill:rgb(141,165,243);fill-rule:nonzero;"/>
        </g>
        <g transform="matrix(4.16667,0,0,4.16667,1972.92,740.104)">
            <path d="M0,0C3.976,3.777 6.289,6.741 7.003,12.282C7.025,13.788 7.025,15.295 7.008,16.801C7.014,17.635 7.02,18.469 7.027,19.328C7.043,22.115 7.03,24.901 7.018,27.688C7.023,29.688 7.03,31.689 7.039,33.69C7.057,39.12 7.05,44.55 7.037,49.979C7.027,55.662 7.037,61.345 7.043,67.027C7.05,76.57 7.041,86.113 7.021,95.656C7,106.689 7.007,117.721 7.029,128.754C7.047,138.226 7.05,147.699 7.039,157.172C7.033,162.829 7.032,168.487 7.045,174.144C7.057,179.463 7.049,184.781 7.026,190.1C7.02,192.052 7.022,194.004 7.031,195.956C7.042,198.621 7.028,201.284 7.008,203.949C7.017,204.721 7.026,205.494 7.035,206.289C6.96,211.458 5.729,214.373 2.5,218.375C-3.93,224.139 -13.432,227.165 -21.25,230.688C-22.811,231.396 -24.371,232.104 -25.931,232.813C-37.372,238.002 -48.857,243.093 -60.348,248.17C-73.504,253.987 -86.559,260.009 -99.597,266.085C-113.3,272.469 -127.062,278.7 -140.904,284.773C-147.69,287.756 -154.435,290.787 -161.098,294.035C-162.271,294.601 -163.445,295.167 -164.655,295.75C-166.791,296.788 -168.919,297.844 -171.035,298.924C-177.9,302.244 -183.879,303.37 -191.5,302.375C-196.469,300.068 -198.865,297.121 -201.5,292.375C-201.879,289.437 -202.042,286.88 -202.008,283.949C-202.014,283.115 -202.02,282.281 -202.027,281.422C-202.043,278.635 -202.03,275.849 -202.018,273.063C-202.023,271.062 -202.03,269.061 -202.039,267.06C-202.057,261.63 -202.05,256.2 -202.037,250.771C-202.027,245.088 -202.037,239.405 -202.043,233.723C-202.05,224.18 -202.041,214.637 -202.021,205.094C-202,194.061 -202.007,183.029 -202.029,171.996C-202.047,162.524 -202.05,153.051 -202.039,143.578C-202.033,137.921 -202.032,132.263 -202.045,126.606C-202.057,121.287 -202.049,115.969 -202.026,110.65C-202.02,108.698 -202.022,106.746 -202.031,104.794C-202.042,102.129 -202.028,99.466 -202.008,96.801C-202.017,96.029 -202.026,95.256 -202.035,94.461C-201.96,89.292 -200.729,86.377 -197.5,82.375C-191.07,76.611 -181.568,73.585 -173.75,70.063C-172.189,69.354 -170.629,68.646 -169.069,67.937C-157.628,62.748 -146.143,57.657 -134.652,52.58C-121.496,46.763 -108.441,40.741 -95.403,34.665C-81.7,28.281 -67.938,22.05 -54.096,15.977C-47.31,12.994 -40.565,9.963 -33.902,6.715C-32.142,5.866 -32.142,5.866 -30.345,5C-28.209,3.962 -26.081,2.906 -23.965,1.826C-16.186,-1.937 -8.129,-3.774 0,0Z" style="fill:rgb(141,165,243);fill-rule:nonzero;"/>
        </g>
    </g>
</svg>
